<?xml version="1.0" encoding="UTF-8"?>
<svg xmlns="http://www.w3.org/2000/svg" width="1280" height="760" viewBox="0 0 1280 760">
  <rect width="1280" height="760" fill="#f4f8ff"/>
  <text x="60" y="70" font-family="Segoe UI, Arial, sans-serif" font-size="30" font-weight="700" fill="#20334e">DaLE Inventario - C4 Nivel 2</text>
  <text x="60" y="105" font-family="Segoe UI, Arial, sans-serif" font-size="16" fill="#526a89">Contenedores principales de la soluci&#243;n</text>

  <rect x="90" y="300" rx="18" ry="18" width="230" height="120" fill="#ffffff" stroke="#7aa2ff" stroke-width="3"/>
  <text x="205" y="350" text-anchor="middle" font-family="Segoe UI, Arial, sans-serif" font-size="24" font-weight="700" fill="#20334e">Usuarios internos</text>
  <text x="205" y="385" text-anchor="middle" font-family="Segoe UI, Arial, sans-serif" font-size="15" fill="#526a89">Administrador y empleado</text>

  <rect x="390" y="150" rx="24" ry="24" width="500" height="420" fill="#ffffff" stroke="#2f6bff" stroke-width="4"/>
  <text x="640" y="205" text-anchor="middle" font-family="Segoe UI, Arial, sans-serif" font-size="28" font-weight="700" fill="#20334e">Inventario.Web</text>
  <text x="640" y="240" text-anchor="middle" font-family="Segoe UI, Arial, sans-serif" font-size="16" fill="#526a89">Aplicaci&#243;n ASP.NET Core 8</text>

  <rect x="450" y="275" rx="16" ry="16" width="170" height="110" fill="#eef4ff" stroke="#7aa2ff" stroke-width="2"/>
  <text x="535" y="320" text-anchor="middle" font-family="Segoe UI, Arial, sans-serif" font-size="21" font-weight="700" fill="#20334e">Razor Pages</text>
  <text x="535" y="350" text-anchor="middle" font-family="Segoe UI, Arial, sans-serif" font-size="14" fill="#526a89">UI del backoffice</text>

  <rect x="660" y="275" rx="16" ry="16" width="170" height="110" fill="#eef4ff" stroke="#7aa2ff" stroke-width="2"/>
  <text x="745" y="320" text-anchor="middle" font-family="Segoe UI, Arial, sans-serif" font-size="21" font-weight="700" fill="#20334e">API REST</text>
  <text x="745" y="350" text-anchor="middle" font-family="Segoe UI, Arial, sans-serif" font-size="14" fill="#526a89">/api/v1</text>

  <rect x="450" y="420" rx="16" ry="16" width="170" height="95" fill="#eef4ff" stroke="#7aa2ff" stroke-width="2"/>
  <text x="535" y="460" text-anchor="middle" font-family="Segoe UI, Arial, sans-serif" font-size="21" font-weight="700" fill="#20334e">Swagger UI</text>
  <text x="535" y="487" text-anchor="middle" font-family="Segoe UI, Arial, sans-serif" font-size="14" fill="#526a89">Documentaci&#243;n OpenAPI</text>

  <rect x="660" y="420" rx="16" ry="16" width="170" height="95" fill="#eef4ff" stroke="#7aa2ff" stroke-width="2"/>
  <text x="745" y="460" text-anchor="middle" font-family="Segoe UI, Arial, sans-serif" font-size="20" font-weight="700" fill="#20334e">Middleware</text>
  <text x="745" y="487" text-anchor="middle" font-family="Segoe UI, Arial, sans-serif" font-size="14" fill="#526a89">Seguridad y errores</text>

  <rect x="980" y="190" rx="18" ry="18" width="220" height="130" fill="#ffffff" stroke="#60a5fa" stroke-width="3"/>
  <text x="1090" y="242" text-anchor="middle" font-family="Segoe UI, Arial, sans-serif" font-size="23" font-weight="700" fill="#20334e">SQL Server</text>
  <text x="1090" y="276" text-anchor="middle" font-family="Segoe UI, Arial, sans-serif" font-size="15" fill="#526a89">Datos del negocio, Identity,</text>
  <text x="1090" y="299" text-anchor="middle" font-family="Segoe UI, Arial, sans-serif" font-size="15" fill="#526a89">auditor&#237;a y trazabilidad</text>

  <rect x="980" y="390" rx="18" ry="18" width="220" height="130" fill="#ffffff" stroke="#60a5fa" stroke-width="3"/>
  <text x="1090" y="442" text-anchor="middle" font-family="Segoe UI, Arial, sans-serif" font-size="23" font-weight="700" fill="#20334e">wwwroot</text>
  <text x="1090" y="476" text-anchor="middle" font-family="Segoe UI, Arial, sans-serif" font-size="15" fill="#526a89">Im&#225;genes del cat&#225;logo,</text>
  <text x="1090" y="499" text-anchor="middle" font-family="Segoe UI, Arial, sans-serif" font-size="15" fill="#526a89">logos y recursos estáticos</text>

  <line x1="320" y1="360" x2="390" y2="360" stroke="#2f6bff" stroke-width="3"/>
  <polygon points="390,360 375,352 375,368" fill="#2f6bff"/>
  <line x1="890" y1="290" x2="980" y2="255" stroke="#2f6bff" stroke-width="3"/>
  <polygon points="980,255 966,252 972,266" fill="#2f6bff"/>
  <line x1="890" y1="460" x2="980" y2="455" stroke="#2f6bff" stroke-width="3"/>
  <polygon points="980,455 965,447 965,463" fill="#2f6bff"/>
</svg>
